<mxfile host="Electron" modified="2023-10-09T18:49:18.104Z" agent="Mozilla/5.0 (Windows NT 10.0; Win64; x64) AppleWebKit/537.36 (KHTML, like Gecko) draw.io/21.7.5 Chrome/114.0.5735.289 Electron/25.8.1 Safari/537.36" etag="nUF9xBSJpOLkt8XgboC9" version="21.7.5" type="device">
  <diagram name="Página-1" id="uG5tMilN7LFkuxMN_r8T">
    <mxGraphModel dx="1514" dy="709" grid="0" gridSize="10" guides="1" tooltips="1" connect="1" arrows="1" fold="1" page="0" pageScale="1" pageWidth="827" pageHeight="1169" math="0" shadow="0">
      <root>
        <mxCell id="0" />
        <mxCell id="1" parent="0" />
        <mxCell id="FZJH282Gg7XwZCHIuKwA-9" value="&lt;b&gt;HumaSite&lt;/b&gt;" style="rounded=1;whiteSpace=wrap;html=1;fillColor=#f8cecc;strokeColor=#b85450;" parent="1" vertex="1">
          <mxGeometry x="842" y="82" width="220" height="89" as="geometry" />
        </mxCell>
        <mxCell id="FZJH282Gg7XwZCHIuKwA-13" style="edgeStyle=orthogonalEdgeStyle;rounded=0;orthogonalLoop=1;jettySize=auto;html=1;entryX=0;entryY=0.5;entryDx=0;entryDy=0;startArrow=classic;startFill=1;exitX=0;exitY=0;exitDx=85.5;exitDy=100;exitPerimeter=0;dashed=1;" parent="1" source="FZJH282Gg7XwZCHIuKwA-12" target="FZJH282Gg7XwZCHIuKwA-11" edge="1">
          <mxGeometry relative="1" as="geometry" />
        </mxCell>
        <mxCell id="FZJH282Gg7XwZCHIuKwA-12" value="&lt;b&gt;Oracle Fusión Cloud&lt;/b&gt;" style="shape=cube;whiteSpace=wrap;html=1;boundedLbl=1;backgroundOutline=1;darkOpacity=0.05;darkOpacity2=0.1;fillColor=#d5e8d4;gradientColor=#97d077;strokeColor=#82b366;" parent="1" vertex="1">
          <mxGeometry x="114" y="80" width="151" height="100" as="geometry" />
        </mxCell>
        <mxCell id="FZJH282Gg7XwZCHIuKwA-17" style="edgeStyle=orthogonalEdgeStyle;rounded=0;orthogonalLoop=1;jettySize=auto;html=1;entryX=-0.025;entryY=0.504;entryDx=0;entryDy=0;entryPerimeter=0;" parent="1" source="FZJH282Gg7XwZCHIuKwA-14" target="FZJH282Gg7XwZCHIuKwA-12" edge="1">
          <mxGeometry relative="1" as="geometry" />
        </mxCell>
        <mxCell id="FZJH282Gg7XwZCHIuKwA-14" value="&lt;b&gt;Recursos Humanos ER&lt;/b&gt;" style="shape=umlActor;verticalLabelPosition=bottom;verticalAlign=top;html=1;outlineConnect=0;fillColor=#e1d5e7;strokeColor=#9673a6;" parent="1" vertex="1">
          <mxGeometry x="-58" y="100" width="30" height="60" as="geometry" />
        </mxCell>
        <mxCell id="FZJH282Gg7XwZCHIuKwA-22" style="edgeStyle=orthogonalEdgeStyle;rounded=0;orthogonalLoop=1;jettySize=auto;html=1;exitX=0;exitY=0;exitDx=240.00000000000003;exitDy=50;exitPerimeter=0;startArrow=classic;startFill=1;dashed=1;" parent="1" source="FZJH282Gg7XwZCHIuKwA-18" target="FZJH282Gg7XwZCHIuKwA-9" edge="1">
          <mxGeometry relative="1" as="geometry" />
        </mxCell>
        <mxCell id="FZJH282Gg7XwZCHIuKwA-24" value="Conector HumaSite" style="text;html=1;strokeColor=none;fillColor=none;align=center;verticalAlign=middle;whiteSpace=wrap;rounded=0;" parent="1" vertex="1">
          <mxGeometry x="840" y="264" width="82" height="30" as="geometry" />
        </mxCell>
        <mxCell id="FZJH282Gg7XwZCHIuKwA-25" value="Por definir:&amp;nbsp; Base de datos, SOAP y Rest" style="text;html=1;strokeColor=none;fillColor=none;align=center;verticalAlign=middle;whiteSpace=wrap;rounded=0;" parent="1" vertex="1">
          <mxGeometry x="952" y="191" width="133" height="30" as="geometry" />
        </mxCell>
        <mxCell id="7wV7q5JgV0tlsfypSZym-2" value="&lt;div style=&quot;text-align: justify;&quot;&gt;&lt;span style=&quot;background-color: initial;&quot;&gt;Alta de empleados&lt;/span&gt;&lt;/div&gt;&lt;div style=&quot;text-align: justify;&quot;&gt;Bajas de empleados&lt;/div&gt;&lt;div style=&quot;text-align: justify;&quot;&gt;Cambio de estructura&amp;nbsp;&lt;/div&gt;&lt;div style=&quot;text-align: justify;&quot;&gt;Cambio de salario.&lt;/div&gt;&lt;div style=&quot;text-align: justify;&quot;&gt;Vacaciones autorizada.&lt;/div&gt;&lt;div style=&quot;text-align: justify;&quot;&gt;Cambio de cuenta bancaria.&lt;/div&gt;&lt;span style=&quot;background-color: initial;&quot;&gt;&lt;div style=&quot;text-align: justify;&quot;&gt;&lt;span style=&quot;background-color: initial;&quot;&gt;Cambio de domicilio&lt;/span&gt;&lt;span style=&quot;background-color: initial;&quot;&gt;&amp;nbsp;&lt;/span&gt;&lt;/div&gt;&lt;/span&gt;" style="html=1;shadow=0;dashed=0;align=center;verticalAlign=middle;shape=mxgraph.arrows2.arrow;dy=0;dx=30;notch=30;" parent="1" vertex="1">
          <mxGeometry x="305" y="65" width="530" height="130" as="geometry" />
        </mxCell>
        <mxCell id="7wV7q5JgV0tlsfypSZym-6" value="Captura Datos" style="text;html=1;strokeColor=none;fillColor=none;align=center;verticalAlign=middle;whiteSpace=wrap;rounded=0;" parent="1" vertex="1">
          <mxGeometry x="29" y="100" width="60" height="30" as="geometry" />
        </mxCell>
        <mxCell id="7wV7q5JgV0tlsfypSZym-8" value="Se obtiene información de las tablas estandar de oracle" style="text;html=1;strokeColor=none;fillColor=none;align=left;verticalAlign=middle;whiteSpace=wrap;rounded=0;" parent="1" vertex="1">
          <mxGeometry x="61" y="221" width="139" height="30" as="geometry" />
        </mxCell>
        <mxCell id="7wV7q5JgV0tlsfypSZym-9" value="Se recupera informacion mediate un reporte" style="text;html=1;strokeColor=none;fillColor=none;align=left;verticalAlign=middle;whiteSpace=wrap;rounded=0;" parent="1" vertex="1">
          <mxGeometry x="145" y="319" width="123" height="30" as="geometry" />
        </mxCell>
        <mxCell id="x211RqHqaSvNVGqTZoPD-1" value="" style="points=[[0.25,0,0],[0.5,0,0],[0.75,0,0],[1,0.25,0],[1,0.5,0],[1,0.75,0],[0.75,1,0],[0.5,1,0],[0.25,1,0],[0,0.75,0],[0,0.5,0],[0,0.25,0]];shape=mxgraph.bpmn.task;whiteSpace=wrap;rectStyle=rounded;size=10;html=1;container=1;expand=0;collapsible=0;taskMarker=abstract;" vertex="1" parent="1">
          <mxGeometry x="294" y="223" width="539" height="261" as="geometry" />
        </mxCell>
        <mxCell id="FZJH282Gg7XwZCHIuKwA-7" value="&lt;b&gt;Base de Datos&lt;/b&gt;" style="shape=cylinder3;whiteSpace=wrap;html=1;boundedLbl=1;backgroundOutline=1;size=15;fillColor=#b1ddf0;strokeColor=#10739e;" parent="x211RqHqaSvNVGqTZoPD-1" vertex="1">
          <mxGeometry x="92.32006920415225" y="183" width="55.951557093425606" height="70" as="geometry" />
        </mxCell>
        <mxCell id="FZJH282Gg7XwZCHIuKwA-11" value="OTBI" style="swimlane;whiteSpace=wrap;html=1;fillColor=#fff2cc;gradientColor=#ffd966;strokeColor=#d6b656;startSize=23;" parent="x211RqHqaSvNVGqTZoPD-1" vertex="1">
          <mxGeometry x="-0.9325259515570934" y="47" width="93.25259515570934" height="81" as="geometry" />
        </mxCell>
        <mxCell id="FZJH282Gg7XwZCHIuKwA-21" style="edgeStyle=orthogonalEdgeStyle;rounded=0;orthogonalLoop=1;jettySize=auto;html=1;exitX=0;exitY=0;exitDx=130;exitDy=80;exitPerimeter=0;entryX=0.5;entryY=0;entryDx=0;entryDy=0;entryPerimeter=0;startArrow=classic;startFill=1;dashed=1;" parent="x211RqHqaSvNVGqTZoPD-1" source="FZJH282Gg7XwZCHIuKwA-18" target="FZJH282Gg7XwZCHIuKwA-7" edge="1">
          <mxGeometry relative="1" as="geometry" />
        </mxCell>
        <mxCell id="FZJH282Gg7XwZCHIuKwA-18" value="&lt;b&gt;Oracle&lt;span style=&quot;color: rgb(77, 81, 86); font-family: arial, sans-serif; font-size: 14px; text-align: left;&quot;&gt;&amp;nbsp;Integration Cloud&lt;/span&gt;&lt;/b&gt;" style="shape=cube;whiteSpace=wrap;html=1;boundedLbl=1;backgroundOutline=1;darkOpacity=0.05;darkOpacity2=0.1;" parent="x211RqHqaSvNVGqTZoPD-1" vertex="1">
          <mxGeometry x="307.0037716262976" y="41" width="223.80622837370242" height="80" as="geometry" />
        </mxCell>
        <mxCell id="FZJH282Gg7XwZCHIuKwA-19" style="edgeStyle=orthogonalEdgeStyle;rounded=0;orthogonalLoop=1;jettySize=auto;html=1;startArrow=classic;startFill=1;dashed=1;" parent="x211RqHqaSvNVGqTZoPD-1" source="FZJH282Gg7XwZCHIuKwA-11" target="FZJH282Gg7XwZCHIuKwA-18" edge="1">
          <mxGeometry relative="1" as="geometry" />
        </mxCell>
        <mxCell id="FZJH282Gg7XwZCHIuKwA-20" value="Conector SOAP" style="text;html=1;strokeColor=none;fillColor=none;align=center;verticalAlign=middle;whiteSpace=wrap;rounded=0;" parent="x211RqHqaSvNVGqTZoPD-1" vertex="1">
          <mxGeometry x="100.71280276816609" y="50" width="55.951557093425606" height="30" as="geometry" />
        </mxCell>
        <mxCell id="FZJH282Gg7XwZCHIuKwA-23" value="Conector&amp;nbsp; Base de Datos" style="text;html=1;strokeColor=none;fillColor=none;align=center;verticalAlign=middle;whiteSpace=wrap;rounded=0;" parent="x211RqHqaSvNVGqTZoPD-1" vertex="1">
          <mxGeometry x="144.54152249134947" y="160" width="76.46712802768167" height="30" as="geometry" />
        </mxCell>
      </root>
    </mxGraphModel>
  </diagram>
</mxfile>
